# xmcd
#
# Track frame offsets: 
#        150
#        15450
#        30145
#        52014
#        67305
#        89782
#
# Disc length: 1403 seconds
#
# Revision: 0
# Processed by: cddbd v1.5.2PL0 Copyright (c) Steve Scherf et al.
# Submitted via: ExactAudioCopyFreeDBPlugin 1.0
#
DISCID=4b057906
DTITLE=Jace Smith - Small Town
DYEAR=1996
DGENRE=Country
TTITLE0=Still in Love with You
TTITLE1=Girl Like That
TTITLE2=Small Town
TTITLE3=I Could Be Your Hero
TTITLE4=Rosita
TTITLE5=Any Other Girl
EXTD=
EXTT0=
EXTT1=
EXTT2=
EXTT3=
EXTT4=
EXTT5=
PLAYORDER=
